# xmcd
#
# Track frame offsets:
#	150
#	12133
#	28258
#	45804
#	65114
#	77852
#	97452
#	111928
#	132497
#	152647
#	171791
#	191301
#
# Disc length: 2755 seconds
#
# Revision: 1
# Processed by: cddbd v1.5.2PL0 Copyright (c) Steve Scherf et al.
# Submitted via: audiograbber 1.83.01
#
DISCID=9f0ac10c
DTITLE=Lilly Hiatt - Trinity Lane
DYEAR=2017
DGENRE=Country
TTITLE0=All Kinds of People
TTITLE1=The Night David Bowie Died
TTITLE2=Trinity Lane
TTITLE3=Everything I Had
TTITLE4=I Wanna Go Home
TTITLE5=Imposter
TTITLE6=Records
TTITLE7=Different, I Guess
TTITLE8=Rotterdam
TTITLE9=Sucker
TTITLE10=So Much You Don't Know
TTITLE11=See Ya Later
EXTD=
EXTT0=
EXTT1=
EXTT2=
EXTT3=
EXTT4=
EXTT5=
EXTT6=
EXTT7=
EXTT8=
EXTT9=
EXTT10=
EXTT11=
PLAYORDER=
